<?xml version="1.0" standalone="no"?>
<!DOCTYPE svg PUBLIC "-//W3C//DTD SVG 20010904//EN"
 "http://www.w3.org/TR/2001/REC-SVG-20010904/DTD/svg10.dtd">
<svg version="1.0" xmlns="http://www.w3.org/2000/svg"
 width="240.000000pt" height="239.614421pt" viewBox="0 0 240.000000 239.614421"
 preserveAspectRatio="xMidYMid meet">
<metadata>
Created by Potrace Professional 1.1m
</metadata>
<g transform="translate(-8.000000,248.003249) rotate(-360.00) scale(0.095238,-0.095238)"
fill="#53a172" stroke="none">
<path d="M110 2578 c-16 -16 -26 -38 -26 -58 0 -20 10 -42 26 -58 24 -24 33
-26 135 -26 l109 0 33 -139 c24 -104 201 -1256 201 -1313 0 -5 12 -20 26 -34
l26 -26 872 0 872 0 26 26 c14 14 26 30 26 34 0 5 38 273 84 596 46 323 84
598 84 612 0 13 -12 36 -26 50 l-26 26 -990 0 -991 0 -36 148 c-47 195 -38
188 -243 188 -152 0 -157 -1 -182 -26z m2240 -974 c-39 -273 -71 -500 -71
-504 0 -4 -345 -8 -767 -8 -422 0 -767 4 -767 8 0 4 -32 231 -71 504 l-72 496
910 0 910 0 -72 -496z"/>
<path d="M821 741 c-188 -61 -284 -279 -204 -460 28 -62 105 -140 168 -169 70
-32 208 -32 278 0 63 29 140 106 169 169 32 70 32 208 0 278 -29 63 -107 140
-169 168 -63 28 -180 34 -242 14z m201 -188 c102 -78 86 -230 -31 -285 -112
-53 -246 45 -232 169 14 127 163 193 263 116z"/>
<path d="M1997 741 c-188 -61 -284 -279 -204 -460 28 -62 105 -140 168 -169
70 -32 208 -32 278 0 63 29 140 106 169 169 32 70 32 208 0 278 -29 63 -107
140 -169 168 -63 28 -180 34 -242 14z m201 -188 c102 -78 86 -230 -31 -285
-112 -53 -246 45 -232 169 14 127 163 193 263 116z"/>
</g>
</svg>
